<svg xmlns="http://www.w3.org/2000/svg" viewBox="0 0 600 900" preserveAspectRatio="xMidYMid slice">
  <rect width="600" height="900" fill="#dbe9f7"/>
  <g fill="none" stroke="#9ab4d6" stroke-width="1.8" stroke-linecap="round" stroke-linejoin="round" opacity="0.85">
    <g transform="translate(90 110)"><circle cx="0" cy="0" r="35"/><ellipse cx="0" cy="0" rx="55" ry="13" transform="rotate(-15)"/></g>
    <g transform="translate(440 100)"><circle cx="0" cy="0" r="24"/><circle cx="-8" cy="-4" r="3" fill="#9ab4d6" stroke="none"/></g>
    <g transform="translate(220 60)"><circle cx="0" cy="0" r="2.5" fill="#9ab4d6" stroke="none"/><circle cx="30" cy="10" r="2.5" fill="#9ab4d6" stroke="none"/><circle cx="60" cy="-5" r="2.5" fill="#9ab4d6" stroke="none"/><line x1="0" y1="0" x2="30" y2="10"/><line x1="30" y1="10" x2="60" y2="-5"/></g>
    <g transform="translate(140 250)"><circle cx="0" cy="-22" r="20"/><rect x="-16" y="-2" width="32" height="36" rx="6"/></g>
    <g transform="translate(440 220)"><circle cx="0" cy="0" r="11"/><path d="M-11 5 l-30 15 M-9 0 l-32 5 M-11 -5 l-28 -8" stroke-width="2.2"/></g>
    <g transform="translate(470 380) rotate(20)"><path d="M0 -45 q17 22 0 45 q-17 -22 0 -45 z"/><circle cx="0" cy="-12" r="5"/></g>
    <g transform="translate(110 470)"><circle cx="0" cy="0" r="28"/><path d="M-22 -8 q22 -8 44 4 M-20 8 q20 -8 38 2"/></g>
    <g transform="translate(420 580)"><ellipse cx="0" cy="5" rx="36" ry="8"/><path d="M-18 -2 q18 -20 36 0"/></g>
    <g transform="translate(450 720)"><circle cx="0" cy="-22" r="20"/><rect x="-16" y="-2" width="32" height="36" rx="6"/></g>
    <g transform="translate(100 720)"><circle cx="0" cy="0" r="32"/><ellipse cx="0" cy="0" rx="50" ry="12" transform="rotate(-10)"/></g>
    <g fill="#9ab4d6" stroke="none" opacity="0.5"><circle cx="180" cy="180" r="1.8"/><circle cx="310" cy="280" r="1.5"/><circle cx="500" cy="320" r="1.8"/><circle cx="80" cy="600" r="1.5"/><circle cx="370" cy="580" r="1.5"/><circle cx="550" cy="660" r="1.8"/></g>
  </g>
</svg>
